<svg t="1750665925552" class="icon" viewBox="0 0 1024 1024" version="1.1" xmlns="http://www.w3.org/2000/svg" p-id="26310" width="64" height="64"><path d="M512.2 516.5c-68.6 0-133.1-26.7-181.5-75.2s-75.2-113-75.2-181.5 26.7-133.1 75.2-181.5S443.6 3 512.2 3s133.1 26.7 181.5 75.2c48.5 48.5 75.2 113 75.2 181.5s-26.7 133.1-75.2 181.5c-48.4 48.6-112.9 75.3-181.5 75.3z m0-433.5c-97.5 0-176.7 79.3-176.7 176.7 0 97.5 79.3 176.7 176.7 176.7S689 357.2 689 259.7C689 162.3 609.7 83 512.2 83zM881 1024c-22.1 0-40-17.9-40-40V777.4c0-82-62.1-149.8-141.8-158.8L543.9 807c-7.6 9.2-18.9 14.5-30.8 14.6h-0.1c-11.9 0-23.1-5.3-30.7-14.4L325.4 618.5c-79.7 8.9-141.9 76.8-141.9 158.8V984c0 22.1-17.9 40-40 40s-40-17.9-40-40V777.4c0-64.1 24.9-124.3 70.2-169.6 45.3-45.3 105.5-70.2 169.6-70.2 11.9 0 23.1 5.3 30.7 14.4l138.8 166.9 137.4-166.7c7.6-9.2 18.9-14.6 30.9-14.6 64.1 0 124.3 24.9 169.6 70.2S921 713.3 921 777.4V984c0 22.1-17.9 40-40 40z" fill="#ffffff" p-id="26311"></path><path d="M512 400.2c-77.3 0-140.1-62.9-140.1-140.1 0-22.1 17.9-40 40-40s40 17.9 40 40c0 33.2 27 60.1 60.1 60.1 33.2 0 60.1-27 60.1-60.1 0-22.1 17.9-40 40-40s40 17.9 40 40c0.1 77.2-62.8 140.1-140.1 140.1zM767 846H667c-22.1 0-40-17.9-40-40s17.9-40 40-40h100c22.1 0 40 17.9 40 40s-17.9 40-40 40z" fill="#ffffff" p-id="26312"></path></svg>